<?xml version="1.0" encoding="iso-8859-1"?>
<!-- Generator: Adobe Illustrator 19.0.0, SVG Export Plug-In . SVG Version: 6.00 Build 0)  -->
<svg version="1.1" id="Layer_1" xmlns="http://www.w3.org/2000/svg" xmlns:xlink="http://www.w3.org/1999/xlink" x="0px" y="0px"
	 viewBox="0 0 512 512" style="enable-background:new 0 0 512 512;" xml:space="preserve">
<circle cx="256" cy="256" r="256"/>
<g>
	<path style="fill:#FFFFFF;" d="M108.056,265.16l12.304-1.688c0.328,7.872,1.808,13.264,4.432,16.168s6.256,4.36,10.896,4.36
		c3.424,0,6.376-0.784,8.856-2.36c2.488-1.56,4.192-3.696,5.136-6.392s1.408-7,1.408-12.904v-71.016h13.64v70.24
		c0,8.624-1.048,15.304-3.136,20.04s-5.392,8.344-9.904,10.832c-4.528,2.488-9.832,3.728-15.928,3.728
		c-9.048,0-15.976-2.6-20.776-7.808C110.176,283.16,107.872,275.424,108.056,265.16z"/>
	<path style="fill:#FFFFFF;" d="M234.128,285.2c-4.688,3.992-9.2,6.8-13.528,8.44c-4.344,1.64-8.992,2.464-13.96,2.464
		c-8.2,0-14.504-2-18.912-6.016c-4.408-4-6.608-9.128-6.608-15.36c0-3.656,0.832-7,2.496-10.016c1.656-3.032,3.832-5.456,6.528-7.28
		c2.696-1.832,5.736-3.208,9.112-4.152c2.488-0.656,6.232-1.288,11.248-1.896c10.216-1.216,17.744-2.672,22.568-4.36
		c0.048-1.736,0.072-2.832,0.072-3.304c0-5.16-1.192-8.792-3.584-10.896c-3.232-2.856-8.04-4.288-14.416-4.288
		c-5.952,0-10.352,1.048-13.184,3.136s-4.928,5.776-6.288,11.072l-12.376-1.688c1.128-5.296,2.976-9.568,5.552-12.832
		c2.576-3.248,6.304-5.768,11.176-7.512c4.872-1.768,10.52-2.64,16.944-2.64c6.376,0,11.552,0.752,15.536,2.248
		s6.912,3.392,8.792,5.656c1.872,2.28,3.184,5.152,3.936,8.616c0.424,2.16,0.632,6.048,0.632,11.672v16.872
		c0,11.768,0.264,19.208,0.808,22.32c0.536,3.128,1.608,6.112,3.2,8.976h-13.216C235.344,291.792,234.504,288.72,234.128,285.2z
		 M233.072,256.936c-4.592,1.872-11.488,3.472-20.672,4.784c-5.2,0.752-8.88,1.592-11.04,2.528s-3.824,2.312-4.992,4.12
		s-1.76,3.808-1.76,6.008c0,3.376,1.272,6.184,3.832,8.44s6.296,3.376,11.216,3.376c4.872,0,9.208-1.064,13.008-3.192
		s6.584-5.056,8.368-8.76c1.36-2.856,2.04-7.08,2.04-12.656V256.936z"/>
	<path style="fill:#FFFFFF;" d="M286.232,294.416l-28.408-74.672h13.36l16.032,44.72c1.736,4.832,3.328,9.84,4.784,15.048
		c1.128-3.936,2.696-8.672,4.712-14.2l16.592-45.56h13.008l-28.264,74.672h-11.816V294.416z"/>
	<path style="fill:#FFFFFF;" d="M386.216,285.2c-4.688,3.992-9.2,6.8-13.528,8.44c-4.344,1.64-8.992,2.464-13.96,2.464
		c-8.2,0-14.504-2-18.912-6.016c-4.408-4-6.608-9.128-6.608-15.36c0-3.656,0.832-7,2.496-10.016c1.656-3.032,3.832-5.456,6.528-7.28
		c2.696-1.832,5.736-3.208,9.112-4.152c2.488-0.656,6.232-1.288,11.248-1.896c10.216-1.216,17.744-2.672,22.568-4.36
		c0.048-1.736,0.072-2.832,0.072-3.304c0-5.16-1.192-8.792-3.584-10.896c-3.232-2.856-8.04-4.288-14.416-4.288
		c-5.952,0-10.352,1.048-13.184,3.136s-4.928,5.776-6.288,11.072l-12.376-1.688c1.128-5.296,2.976-9.568,5.552-12.832
		c2.576-3.248,6.304-5.768,11.176-7.512c4.872-1.768,10.52-2.64,16.944-2.64c6.376,0,11.552,0.752,15.536,2.248
		s6.912,3.392,8.792,5.656c1.872,2.28,3.184,5.152,3.936,8.616c0.424,2.16,0.632,6.048,0.632,11.672v16.872
		c0,11.768,0.264,19.208,0.808,22.32c0.536,3.128,1.608,6.112,3.2,8.976h-13.216C387.432,291.792,386.592,288.72,386.216,285.2z
		 M385.16,256.936c-4.592,1.872-11.488,3.472-20.672,4.784c-5.2,0.752-8.88,1.592-11.04,2.528s-3.824,2.312-4.992,4.12
		s-1.76,3.808-1.76,6.008c0,3.376,1.272,6.184,3.832,8.44s6.296,3.376,11.216,3.376c4.872,0,9.208-1.064,13.008-3.192
		s6.584-5.056,8.368-8.76c1.36-2.856,2.04-7.08,2.04-12.656V256.936z"/>
</g>
<g>
</g>
<g>
</g>
<g>
</g>
<g>
</g>
<g>
</g>
<g>
</g>
<g>
</g>
<g>
</g>
<g>
</g>
<g>
</g>
<g>
</g>
<g>
</g>
<g>
</g>
<g>
</g>
<g>
</g>
</svg>
