<svg height="512pt" viewBox="0 -13 512 512" width="512pt" xmlns="http://www.w3.org/2000/svg"><path d="m512 146.105469v323.445312c0 8.765625-7.105469 15.882813-15.882812 15.882813h-309.691407c-8.777343 0-15.882812-7.117188-15.882812-15.882813v-453.667969c0-8.765624 7.105469-15.882812 15.882812-15.882812h179.46875c2.289063 0 4.53125.496094 6.578125 1.429688 1.714844.773437 3.292969 1.851562 4.65625 3.21875l130.222656 130.222656c1.355469 1.363281 2.433594 2.941406 3.21875 4.65625.933594 2.046875 1.429688 4.289062 1.429688 6.578125zm0 0" fill="#4895ff"/><path d="m512 146.105469v323.445312c0 8.765625-7.105469 15.882813-15.882812 15.882813h-154.839844v-485.433594h24.617187c2.289063 0 4.53125.496094 6.578125 1.429688 1.714844.773437 3.292969 1.851562 4.65625 3.21875l130.222656 130.222656c1.355469 1.363281 2.433594 2.941406 3.21875 4.65625.933594 2.046875 1.429688 4.289062 1.429688 6.578125zm0 0" fill="#2682ff"/><path d="m510.570312 139.527344h-122.214843c-8.773438 0-15.882813-7.109375-15.882813-15.882813v-122.214843c1.714844.773437 3.292969 1.851562 4.65625 3.21875l130.222656 130.222656c1.355469 1.363281 2.433594 2.941406 3.21875 4.65625zm0 0" fill="#aed0ff"/><path d="m447.90625 233.21875v148.539062c0 24.925782-20.277344 45.203126-45.203125 45.203126h-357.5c-24.925781 0-45.203125-20.277344-45.203125-45.203126v-148.539062c0-24.925781 20.277344-45.214844 45.203125-45.214844h357.5c24.925781 0 45.203125 20.289063 45.203125 45.214844zm0 0" fill="#ff5e93"/><path d="m447.90625 233.21875v148.539062c0 24.925782-20.277344 45.203126-45.203125 45.203126h-173.179687v-238.957032h173.179687c24.925781 0 45.203125 20.289063 45.203125 45.214844zm0 0" fill="#ff3c7d"/><path d="m416.140625 233.21875v148.539062c0 7.414063-6.027344 13.4375-13.4375 13.4375h-357.5c-7.402344 0-13.4375-6.023437-13.4375-13.4375v-148.539062c0-7.410156 6.035156-13.449219 13.4375-13.449219h357.5c7.410156 0 13.4375 6.035157 13.4375 13.449219zm0 0" fill="#ffeb99"/><path d="m416.140625 233.21875v148.539062c0 7.414063-6.027344 13.4375-13.4375 13.4375h-173.179687v-175.425781h173.179687c7.410156 0 13.4375 6.035157 13.4375 13.449219zm0 0" fill="#ffda44"/><path d="m98.390625 272.644531h45.398437c8.773438 0 15.882813-7.109375 15.882813-15.882812 0-8.773438-7.109375-15.882813-15.882813-15.882813h-45.398437c-21.921875 0-39.761719 17.835938-39.761719 39.757813 0 21.925781 17.839844 39.761719 39.761719 39.761719h21.519531c4.410156 0 7.996094 3.585937 7.996094 7.996093 0 4.40625-3.585938 7.992188-7.996094 7.992188h-45.394531c-8.773437 0-15.882813 7.113281-15.882813 15.886719 0 8.769531 7.109376 15.882812 15.882813 15.882812h45.398437c21.921876 0 39.761719-17.839844 39.761719-39.761719 0-21.925781-17.839843-39.761719-39.761719-39.761719h-21.523437c-4.40625 0-7.992187-3.585937-7.992187-7.996093 0-4.40625 3.585937-7.992188 7.992187-7.992188zm0 0" fill="#4895ff"/><path d="m291.042969 354.566406-14.113281-14.125c4.480468-7.898437 7.050781-17.027344 7.050781-26.746094v-18.351562c0-30.03125-24.425781-54.46875-54.457031-54.46875s-54.46875 24.4375-54.46875 54.46875v18.351562c0 30.027344 24.4375 54.457032 54.46875 54.457032 8.765624 0 17.046874-2.097656 24.394531-5.792969l14.667969 14.667969c6.203124 6.203125 16.261718 6.203125 22.457031 0 6.207031-6.207032 6.207031-16.265625 0-22.460938zm-38.921875-38.9375-5.125-5.113281c-4.722656-4.722656-11.679688-5.855469-17.472656-3.367187-1.8125.761718-3.503907 1.886718-4.988282 3.367187-6.203125 6.195313-6.203125 16.253906 0 22.460937l3.335938 3.324219c-11.742188-.847656-21.050782-10.65625-21.050782-22.609375v-18.347656c0-12.515625 10.1875-22.703125 22.703126-22.703125 12.515624 0 22.691406 10.183594 22.691406 22.703125 0 20.285156.042968 18.699219-.09375 20.285156zm0 0" fill="#4895ff"/><g fill="#2682ff"><path d="m291.042969 377.023438c-6.195313 6.207031-16.253907 6.207031-22.457031 0l-14.667969-14.664063c-7.347657 3.695313-15.628907 5.792969-24.394531 5.792969v-61.003906c5.789062-2.488282 12.746093-1.355469 17.46875 3.367187l5.125 5.113281c.140624-1.585937.097656 0 .097656-20.285156 0-12.515625-10.175782-22.703125-22.691406-22.703125v-31.769531c30.027343 0 54.457031 24.441406 54.457031 54.46875v18.351562c0 9.71875-2.574219 18.847656-7.050781 26.746094l14.113281 14.125c6.207031 6.199219 6.207031 16.257812 0 22.460938zm0 0"/><path d="m381.484375 336.386719h-38.203125v-79.625c0-8.773438-7.113281-15.882813-15.882812-15.882813-8.773438 0-15.886719 7.109375-15.886719 15.882813v95.511719c0 8.769531 7.113281 15.882812 15.886719 15.882812h54.085937c8.769531 0 15.882813-7.113281 15.882813-15.882812 0-8.773438-7.109376-15.886719-15.882813-15.886719zm0 0"/></g></svg>