<svg id="icons" enable-background="new 0 0 64 64" height="512" viewBox="0 0 64 64" width="512" xmlns="http://www.w3.org/2000/svg"><g><path d="m56.72 19.433c-.34-1.32-1.029-2.57-2.069-3.6-1.03-1.03-2.271-1.721-3.591-2.061-2.659-.72-5.619-.029-7.72 2.061-3.12 3.13-3.12 8.189 0 11.32 3.12 3.119 8.19 3.119 11.311 0 2.089-2.09 2.789-5.05 2.069-7.72z" fill="#a0d468"/><path d="m63 50.503h-62c-.553 0-1-.447-1-1s.447-1 1-1h62c.553 0 1 .447 1 1s-.447 1-1 1z" fill="#fc6e51"/><path d="m22.991 48.501c-.256 0-.512-.098-.707-.293l-18-18.001c-.391-.391-.391-1.023 0-1.414s1.023-.391 1.414 0l18 18.001c.391.391.391 1.023 0 1.414-.195.195-.451.293-.707.293z" fill="#656d78"/><path d="m22.991 48.501c-.256 0-.512-.098-.707-.293-.391-.391-.391-1.023 0-1.414l15.998-16c.391-.391 1.023-.391 1.414 0s.391 1.023 0 1.414l-15.998 16c-.195.195-.451.293-.707.293z" fill="#656d78"/><g fill="#e6e9ed"><path d="m29.998 35.503c-.256 0-.512-.098-.707-.293-.391-.391-.391-1.023 0-1.414l8.002-8.003c.391-.391 1.023-.391 1.414 0s.391 1.023 0 1.414l-8.002 8.003c-.195.195-.451.293-.707.293z"/><path d="m36.004 41.509c-.256 0-.512-.098-.707-.293-.391-.391-.391-1.023 0-1.414l8.002-8.005c.391-.391 1.023-.391 1.414 0s.391 1.023 0 1.415l-8.002 8.005c-.195.194-.451.292-.707.292z"/><path d="m56.72 19.433c-.092-.358-.216-.709-.359-1.055l-5.241 5.242c-.001 0-.002 0-.002 0-1.17 1.17-3.075 1.171-4.243.002-1.169-1.17-1.169-3.074 0-4.243l5.244-5.245c-.346-.145-.698-.269-1.059-.361-.392-.105-.79-.172-1.191-.217l-4.408 4.409c-1.949 1.949-1.949 5.121 0 7.071.974.975 2.254 1.461 3.534 1.461s2.562-.486 3.537-1.461l.001-.002 4.404-4.403c-.045-.403-.111-.803-.217-1.198z"/></g></g></svg>